PathFileType	4	(X/Y/Z)	C:\Users\italobelli\Desktop\GitHub\PTbot_officialCBL\Personal_Results\SHRUG01_noisy2.trc
DataRate	CameraRate	NumFrames	NumMarkers	Units	OrigDataRate	OrigDataStartFrame	OrigNumFrames
110.888889	110.888889	33	9	m	110.888889	1	500
Frame#	Time		gu		centelbow		EpL		centpxt8		centijc7		ij		ts		aa		ai
			X1	Y1	Z1	X2	Y2	Z2	X3	Y3	Z3	X4	Y4	Z4	X5	Y5	Z5	X6	Y6	Z6	X7	Y7	Z7	X8	Y8	Z8	X9	Y9	Z9

1	0	-0.078716	-0.010393	0.16801	-0.10218	-0.25105	0.20133	-0.081438	-0.24529	0.22533	-0.046816	-0.15316	-0.008669	-0.046816	0.031938	-0.008669	0	0	0	-0.13878	0.031076	0.05847	-0.10481	0.028208	0.17276	-0.16058	-0.079952	0.067602
2	0.009018	-0.078718	-0.010421	0.16799	-0.10199	-0.25108	0.20104	-0.081247	-0.24533	0.22504	-0.046816	-0.15316	-0.008669	-0.046816	0.031938	-0.008669	0	0	0	-0.13881	0.031021	0.058477	-0.10481	0.02815	0.17276	-0.16059	-0.08001	0.067607
3	0.018036	-0.078721	-0.010447	0.16797	-0.1018	-0.25111	0.20076	-0.081058	-0.24536	0.22476	-0.046816	-0.15316	-0.008669	-0.046816	0.031938	-0.008669	0	0	0	-0.13884	0.030968	0.058484	-0.10482	0.028096	0.17276	-0.16061	-0.080065	0.067612
4	0.027054	-0.078723	-0.01047	0.16795	-0.10162	-0.25115	0.20047	-0.080871	-0.2454	0.22447	-0.046816	-0.15316	-0.008669	-0.046816	0.031938	-0.008669	0	0	0	-0.13887	0.030918	0.05849	-0.10482	0.028045	0.17276	-0.16062	-0.080118	0.067616
5	0.036072	-0.078726	-0.010492	0.16793	-0.10143	-0.25118	0.20019	-0.080685	-0.24543	0.22419	-0.046816	-0.15316	-0.008669	-0.046816	0.031938	-0.008669	0	0	0	-0.1389	0.030869	0.058495	-0.10482	0.027998	0.17276	-0.16063	-0.080168	0.06762
6	0.04509	-0.07873	-0.010511	0.16791	-0.10125	-0.2512	0.19991	-0.0805	-0.24546	0.2239	-0.046816	-0.15316	-0.008669	-0.046816	0.031938	-0.008669	0	0	0	-0.13893	0.030822	0.0585	-0.10482	0.027954	0.17275	-0.16065	-0.080216	0.067624
7	0.054108	-0.078733	-0.010528	0.16789	-0.10106	-0.25123	0.19963	-0.080317	-0.24549	0.22362	-0.046816	-0.15316	-0.008669	-0.046816	0.031938	-0.008669	0	0	0	-0.13895	0.030777	0.058504	-0.10483	0.027914	0.17275	-0.16066	-0.080261	0.067628
8	0.063126	-0.078737	-0.010543	0.16788	-0.10088	-0.25126	0.19935	-0.080135	-0.24552	0.22334	-0.046816	-0.15316	-0.008669	-0.046816	0.031938	-0.008669	0	0	0	-0.13898	0.030735	0.058508	-0.10483	0.027877	0.17275	-0.16067	-0.080304	0.067632
9	0.072144	-0.078741	-0.010556	0.16786	-0.1007	-0.25129	0.19907	-0.079954	-0.24555	0.22306	-0.046816	-0.15316	-0.008669	-0.046816	0.031938	-0.008669	0	0	0	-0.13901	0.030694	0.058511	-0.10483	0.027843	0.17275	-0.16068	-0.080344	0.067635
10	0.081162	-0.078745	-0.010567	0.16784	-0.10052	-0.25131	0.1988	-0.079775	-0.24558	0.22278	-0.046816	-0.15316	-0.008669	-0.046816	0.031938	-0.008669	0	0	0	-0.13903	0.030655	0.058514	-0.10483	0.027812	0.17274	-0.16069	-0.080382	0.067638
11	0.09018	-0.078749	-0.010576	0.16782	-0.10035	-0.25134	0.19852	-0.079597	-0.24561	0.22251	-0.046816	-0.15316	-0.008669	-0.046816	0.031938	-0.008669	0	0	0	-0.13905	0.030618	0.058516	-0.10483	0.027784	0.17274	-0.1607	-0.080417	0.067641
12	0.099198	-0.078754	-0.010584	0.16781	-0.10017	-0.25136	0.19825	-0.07942	-0.24563	0.22223	-0.046816	-0.15316	-0.008669	-0.046816	0.031938	-0.008669	0	0	0	-0.13908	0.030584	0.058517	-0.10483	0.027759	0.17274	-0.16071	-0.08045	0.067644
13	0.10822	-0.078758	-0.01059	0.16779	-0.099995	-0.25139	0.19798	-0.079245	-0.24566	0.22196	-0.046816	-0.15316	-0.008669	-0.046816	0.031938	-0.008669	0	0	0	-0.1391	0.030551	0.058518	-0.10483	0.027737	0.17273	-0.16071	-0.080481	0.067647
14	0.11723	-0.078763	-0.010594	0.16777	-0.099821	-0.25141	0.19771	-0.079071	-0.24568	0.22169	-0.046816	-0.15316	-0.008669	-0.046816	0.031938	-0.008669	0	0	0	-0.13912	0.03052	0.058519	-0.10483	0.027718	0.17273	-0.16072	-0.080509	0.067649
15	0.12625	-0.078769	-0.010596	0.16776	-0.099649	-0.25143	0.19745	-0.078898	-0.24571	0.22142	-0.046816	-0.15316	-0.008669	-0.046816	0.031938	-0.008669	0	0	0	-0.13914	0.030492	0.058519	-0.10483	0.027702	0.17272	-0.16073	-0.080535	0.067652
16	0.13527	-0.078774	-0.010597	0.16774	-0.099477	-0.25145	0.19719	-0.078726	-0.24573	0.22116	-0.046816	-0.15316	-0.008669	-0.046816	0.031938	-0.008669	0	0	0	-0.13916	0.030465	0.058519	-0.10483	0.027688	0.17272	-0.16074	-0.080559	0.067654
17	0.14429	-0.078779	-0.010596	0.16772	-0.099306	-0.25147	0.19693	-0.078556	-0.24575	0.22089	-0.046816	-0.15316	-0.008669	-0.046816	0.031938	-0.008669	0	0	0	-0.13918	0.03044	0.058518	-0.10483	0.027677	0.17271	-0.16074	-0.08058	0.067656
18	0.15331	-0.078785	-0.010594	0.16771	-0.099137	-0.25149	0.19667	-0.078387	-0.24577	0.22063	-0.046816	-0.15316	-0.008669	-0.046816	0.031938	-0.008669	0	0	0	-0.1392	0.030418	0.058517	-0.10483	0.027668	0.17271	-0.16075	-0.0806	0.067658
19	0.16232	-0.078791	-0.01059	0.16769	-0.098969	-0.25151	0.19642	-0.078219	-0.24579	0.22038	-0.046816	-0.15316	-0.008669	-0.046816	0.031938	-0.008669	0	0	0	-0.13922	0.030397	0.058515	-0.10483	0.027662	0.1727	-0.16075	-0.080617	0.06766
20	0.17134	-0.078797	-0.010586	0.16768	-0.098801	-0.25153	0.19617	-0.078052	-0.24581	0.22012	-0.046816	-0.15316	-0.008669	-0.046816	0.031938	-0.008669	0	0	0	-0.13924	0.030378	0.058513	-0.10483	0.027658	0.1727	-0.16076	-0.080632	0.067662
21	0.18036	-0.078803	-0.010579	0.16767	-0.098635	-0.25155	0.19592	-0.077887	-0.24583	0.21987	-0.046816	-0.15316	-0.008669	-0.046816	0.031938	-0.008669	0	0	0	-0.13925	0.030362	0.058511	-0.10483	0.027657	0.17269	-0.16076	-0.080645	0.067663
22	0.18938	-0.078809	-0.010572	0.16765	-0.09847	-0.25157	0.19568	-0.077722	-0.24585	0.21962	-0.046816	-0.15316	-0.008669	-0.046816	0.031938	-0.008669	0	0	0	-0.13927	0.030347	0.058508	-0.10483	0.027658	0.17269	-0.16077	-0.080655	0.067665
23	0.1984	-0.078815	-0.010563	0.16764	-0.098306	-0.25159	0.19544	-0.077559	-0.24587	0.21938	-0.046816	-0.15316	-0.008669	-0.046816	0.031938	-0.008669	0	0	0	-0.13928	0.030335	0.058505	-0.10483	0.02766	0.17268	-0.16077	-0.080664	0.067666
24	0.20741	-0.078822	-0.010554	0.16762	-0.098143	-0.2516	0.1952	-0.077396	-0.24588	0.21914	-0.046816	-0.15316	-0.008669	-0.046816	0.031938	-0.008669	0	0	0	-0.1393	0.030325	0.058501	-0.10483	0.027665	0.17267	-0.16077	-0.08067	0.067667
25	0.21643	-0.078828	-0.010543	0.16761	-0.097981	-0.25162	0.19497	-0.077235	-0.2459	0.2189	-0.046816	-0.15316	-0.008669	-0.046816	0.031938	-0.008669	0	0	0	-0.13931	0.030316	0.058497	-0.10482	0.027672	0.17267	-0.16078	-0.080675	0.067668
26	0.22545	-0.078835	-0.010531	0.1676	-0.09782	-0.25164	0.19474	-0.077075	-0.24592	0.21867	-0.046816	-0.15316	-0.008669	-0.046816	0.031938	-0.008669	0	0	0	-0.13932	0.03031	0.058493	-0.10482	0.027681	0.17266	-0.16078	-0.080677	0.067669
27	0.23447	-0.078841	-0.010518	0.16758	-0.09766	-0.25165	0.19451	-0.076916	-0.24593	0.21844	-0.046816	-0.15316	-0.008669	-0.046816	0.031938	-0.008669	0	0	0	-0.13933	0.030305	0.058488	-0.10482	0.027692	0.17265	-0.16078	-0.080678	0.06767
28	0.24349	-0.078848	-0.010505	0.16757	-0.0975	-0.25167	0.19429	-0.076758	-0.24595	0.21822	-0.046816	-0.15316	-0.008669	-0.046816	0.031938	-0.008669	0	0	0	-0.13934	0.030303	0.058483	-0.10482	0.027705	0.17265	-0.16079	-0.080676	0.067671
29	0.25251	-0.078855	-0.01049	0.16756	-0.097342	-0.25168	0.19407	-0.076601	-0.24596	0.218	-0.046816	-0.15316	-0.008669	-0.046816	0.031938	-0.008669	0	0	0	-0.13935	0.030303	0.058478	-0.10482	0.027719	0.17264	-0.16079	-0.080673	0.067672
30	0.26152	-0.078862	-0.010475	0.16755	-0.097185	-0.2517	0.19386	-0.076445	-0.24597	0.21779	-0.046816	-0.15316	-0.008669	-0.046816	0.031938	-0.008669	0	0	0	-0.13936	0.030305	0.058473	-0.10482	0.027735	0.17263	-0.16079	-0.080668	0.067673
31	0.27054	-0.078869	-0.010459	0.16753	-0.097028	-0.25171	0.19365	-0.076289	-0.24599	0.21758	-0.046816	-0.15316	-0.008669	-0.046816	0.031938	-0.008669	0	0	0	-0.13936	0.030309	0.058467	-0.10481	0.027752	0.17263	-0.16079	-0.080661	0.067673
32	0.27956	-0.078876	-0.010442	0.16752	-0.096873	-0.25173	0.19345	-0.076135	-0.246	0.21737	-0.046816	-0.15316	-0.008669	-0.046816	0.031938	-0.008669	0	0	0	-0.13937	0.030315	0.058461	-0.10481	0.027771	0.17262	-0.16079	-0.080652	0.067674
33	0.28858	-0.078883	-0.010425	0.16751	-0.096718	-0.25174	0.19325	-0.075982	-0.24602	0.21717	-0.046816	-0.15316	-0.008669	-0.046816	0.031938	-0.008669	0	0	0	-0.13937	0.030322	0.058455	-0.10481	0.027791	0.17261	-0.16079	-0.080641	0.067675
